<svg xmlns="http://www.w3.org/2000/svg" xmlns:xlink="http://www.w3.org/1999/xlink" viewBox="0 0 980 500">
  <defs>
    <style>
      .a {
        fill:url(#a);}
      </style>
    <linearGradient id="a" y1="240" x2="980" y2="240" gradientUnits="userSpaceOnUse">
      <stop offset="0" stop-opacity="0"/>
      <stop offset="1" stop-opacity="0.03"/>
    </linearGradient>

</defs>
<path class="a" d="M980,40A40,40,0,1,1,940,0,40,40,0,0,1,980,40ZM740,0a40,40,0,1,0,40,40A40,40,0,0,0,740,0ZM640,0a40,40,0,1,0,40,40A40,40,0,0,0,640,0ZM540,0a40,40,0,1,0,40,40A40,40,0,0,0,540,0ZM440,0a40,40,0,1,0,40,40A40,40,0,0,0,440,0ZM340,0a40,40,0,1,0,40,40A40,40,0,0,0,340,0ZM940,100a40,40,0,1,0,40,40A40,40,0,0,0,940,100Zm-100,0a40,40,0,1,0,40,40A40,40,0,0,0,840,100Zm-100,0a40,40,0,1,0,40,40A40,40,0,0,0,740,100Zm-100,0a40,40,0,1,0,40,40A40,40,0,0,0,640,100Zm-200,0a40,40,0,1,0,40,40A40,40,0,0,0,440,100Zm-100,0a40,40,0,1,0,40,40A40,40,0,0,0,340,100Zm-100,0a40,40,0,1,0,40,40A40,40,0,0,0,240,100ZM40,100a40,40,0,1,0,40,40A40,40,0,0,0,40,100ZM940,200a40,40,0,1,0,40,40A40,40,0,0,0,940,200Zm-100,0a40,40,0,1,0,40,40A40,40,0,0,0,840,200Zm-200,0a40,40,0,1,0,40,40A40,40,0,0,0,640,200Zm-100,0a40,40,0,1,0,40,40A40,40,0,0,0,540,200Zm-200,0a40,40,0,1,0,40,40A40,40,0,0,0,340,200Zm-100,0a40,40,0,1,0,40,40A40,40,0,0,0,240,200Zm-100,0a40,40,0,1,0,40,40A40,40,0,0,0,140,200ZM40,200a40,40,0,1,0,40,40A40,40,0,0,0,40,200ZM840,300a40,40,0,1,0,40,40A40,40,0,0,0,840,300Zm-100,0a40,40,0,1,0,40,40A40,40,0,0,0,740,300Zm-100,0a40,40,0,1,0,40,40A40,40,0,0,0,640,300Zm-100,0a40,40,0,1,0,40,40A40,40,0,0,0,540,300Zm-100,0a40,40,0,1,0,40,40A40,40,0,0,0,440,300Zm-100,0a40,40,0,1,0,40,40A40,40,0,0,0,340,300Zm-200,0a40,40,0,1,0,40,40A40,40,0,0,0,140,300ZM940,400a40,40,0,1,0,40,40A40,40,0,0,0,940,400Zm-200,0a40,40,0,1,0,40,40A40,40,0,0,0,740,400Zm-100,0a40,40,0,1,0,40,40A40,40,0,0,0,640,400Zm-200,0a40,40,0,1,0,40,40A40,40,0,0,0,440,400Zm-200,0a40,40,0,1,0,40,40A40,40,0,0,0,240,400Zm-100,0a40,40,0,1,0,40,40A40,40,0,0,0,140,400ZM40,400a40,40,0,1,0,40,40A40,40,0,0,0,40,400Z"/></svg>
