<?xml version="1.0" encoding="UTF-8"?>
<svg id="Lag_2" data-name="Lag 2" xmlns="http://www.w3.org/2000/svg" viewBox="0 0 800 800">
  <defs>
    <style>
      .circle {
        fill: #fff;
      }
      .logo {
        fill: #af161e;
      }
    </style>
  </defs>
  <g id="Lag_1" data-name="Lag 1">
    <circle class="circle" cx="400" cy="400" r="400"/>
  </g>
  <g id="Lag_2" data-name="Lag 2">
    <path class="logo" d="M698.62,435.96c-1.31-1.25-3.06-1.95-4.88-1.93h-31.13c-2.06-.16-4.09,.47-5.71,1.75-1.54,1.77-2.61,3.89-3.13,6.17-1.87,10.96-7.79,20.82-16.58,27.63-9.18,5.81-19.91,8.67-30.76,8.2-30.12,0-46.05-17.04-47.06-51.02v-53.6c.04-9.98,2.21-19.84,6.35-28.92l-22.66-39.42-3.96,3.41c-16.72,16.93-25.94,39.85-25.6,63.64v56.27c-.44,23.85,8.72,46.88,25.42,63.91,15.96,14.98,38.46,22.47,67.51,22.47,16.82,.4,33.52-2.93,48.9-9.76,12.95-5.53,24.16-14.47,32.42-25.88,7.63-11.18,11.85-24.32,12.16-37.85,.27-1.79-.39-3.59-1.75-4.79"/>
    <path class="logo" d="M606.52,322.32c10.91-.51,21.71,2.35,30.94,8.2,8.66,6.9,14.49,16.73,16.39,27.63,.48,2.3,1.56,4.43,3.13,6.17,1.62,1.28,3.65,1.91,5.71,1.75h30.67c1.67,0,3.28-.62,4.51-1.75,1.33-1.04,2.11-2.64,2.12-4.33v-.28c-.42-13.38-4.67-26.35-12.25-37.39-8.1-11.85-19.32-21.22-32.42-27.08-15.35-6.82-32.02-10.15-48.81-9.76-12.73-.19-25.42,1.65-37.57,5.43l19.16,34.17c5.95-1.93,12.17-2.86,18.42-2.76"/>
    <path class="logo" d="M184.64,288.7h-10.96v36.84h9.21c14.06-1.19,28.03,3.21,38.86,12.25,9.1,10.65,13.73,24.42,12.89,38.4,0,12.34,.64,20.26,.64,23.58s0,11.24-.64,23.94c.99,14.15-3.38,28.16-12.25,39.23-10.59,8.79-24.23,13.03-37.94,11.79h-39.88v-186.03h-36.84c-2.07-.1-4.09,.71-5.53,2.21-1.46,1.54-2.26,3.59-2.21,5.71v207.49c-.04,2.04,.76,4,2.21,5.43,1.39,1.45,3.33,2.25,5.34,2.21h78.65c31.4,0,54.61-7,69.62-21.18,15.01-14.18,23.02-36.01,23.85-65.76,0-12.34,.64-20.54,.64-24.59s0-12.52-.64-24.87c-1.23-57.84-32.91-86.72-95.04-86.66"/>
    <path class="logo" d="M491.5,501.63l-46.05-81.32c12.47-4.1,23.31-12.07,30.94-22.75,7.65-11.55,11.51-25.2,11.05-39.05,1.18-19.7-6.93-38.82-21.92-51.67-17.44-13.15-38.98-19.68-60.78-18.42h-15.56v35.92h14.74c10.31-.64,20.48,2.65,28.46,9.21,6.53,6.63,9.89,15.76,9.21,25.05,.73,9.18-2.64,18.22-9.21,24.68-8.11,6.26-18.25,9.28-28.46,8.47h-43.75v-103.05h-36.84c-2.07-.1-4.09,.71-5.53,2.21-1.4,1.56-2.12,3.61-2.03,5.71v207.49c-.05,4.17,3.29,7.59,7.46,7.64,.03,0,.06,0,.09,0h29.1c2.13,.08,4.19-.72,5.71-2.21,1.45-1.43,2.25-3.4,2.21-5.43v-76.44h43.56l40.43,75.52c1.29,2.33,2.97,4.42,4.97,6.17,2.26,1.73,5.08,2.58,7.92,2.39h28.64c1.69,0,3.3-.67,4.51-1.84,1.35-1.22,2.12-2.96,2.12-4.79-.05-1.23-.39-2.43-1.01-3.5"/>
  </g>
</svg>