<svg xmlns="http://www.w3.org/2000/svg" viewBox="0 0 200 97.93"><path d="M3.82,21H2.47c-.22,0-.22,0-.45-.22L.22,19.63A.81.81,0,0,1,0,19.18V15.81a.71.71,0,0,1,.67-.67H3.59c.45,0,.9-.45.68-.9L4,12.44A2.59,2.59,0,0,1,7,9.3l22.23,2.92a.81.81,0,0,0,.67-.23l.67-.9a5.25,5.25,0,0,1,4.27-2l5.61.45a3.36,3.36,0,0,1,2.92,4.27l-.22.9a.49.49,0,0,1-.45.45L40,16.71a1.39,1.39,0,0,0,.23,2.47h0a1.81,1.81,0,0,0,2.47-.68h0c.22-.22.22-.22.45-.22l3.59-.67a4.06,4.06,0,0,1,4.27,2l.67,1.12c.22.22.45.45.67.45h0a1.53,1.53,0,0,1,1.57,1.57V25a2.73,2.73,0,0,1-3.14,2.7l-7-.67a1,1,0,0,0-.9.89h0a4.39,4.39,0,0,1-2,4.72L35,36.47c-.23.22-.45.44-.45.67v2.24a.72.72,0,0,1-.68.68h-.22c-.23,0-.45-.23-.68-.23l-1.79-2.47c-.23-.22-.45-.45-.9-.22L25.6,38.49a.47.47,0,0,0-.45.44L23.8,41.85A.82.82,0,0,0,24.25,43l2,.67c.22,0,.45.45.45.67v1.8a.59.59,0,0,0,.67.67l1.12.23A3.08,3.08,0,0,1,31,49.71h0a.72.72,0,0,0,.68.68H42.21a.83.83,0,0,1,.67.22l2.47,2.69a.83.83,0,0,0,.68.23H48.5a.71.71,0,0,1,.67.67v1.57a.6.6,0,0,0,.67.68l4.94.67a.48.48,0,0,1,.45.45l2.7,4.49A4.11,4.11,0,0,1,57.25,67l-1.79,2a.81.81,0,0,0-.23.67l.23.68a9,9,0,0,1-2.92,8.08l-4.27,3.82a8.36,8.36,0,0,0-2.92,6.28v4.27c0,.22.23.67.45.67l2,1.13a.88.88,0,0,1,.45.89l-.22.45a3,3,0,0,1-4.27,1.57l-.67-.44a4.07,4.07,0,0,1-2-4.27l.22-.9c0-.22,0-.67-.45-.67h0A5.13,5.13,0,0,1,38.62,87V74c0-.22-.23-.45-.45-.67l-1.57-.9a4.68,4.68,0,0,1-2-5.39l.22-.45a1.39,1.39,0,0,0-.22-.9l-4.27-3.59a.83.83,0,0,1-.22-.67v-3.6a.59.59,0,0,1,.67-.67l1.12-.22a.48.48,0,0,0,.45-.45L33,54.2a1.39,1.39,0,0,0-.22-.9l-.67-.67a.7.7,0,0,0-.9,0l-1.12.67c-.45.23-1.13,0-1.13-.44l-.22-2c0-.22-.23-.44-.45-.67l-2.47-.9c-.22,0-.45-.45-.45-.67h0a.59.59,0,0,0-.67-.67l-5.39-1.35a2.84,2.84,0,0,1-1.8-3.82h0c.23-.22,0-.67-.22-.9l-4.27-4a.83.83,0,0,1-.22-.67l.9-9.88a.59.59,0,0,1,.67-.67h0a2.88,2.88,0,0,0,2.47-2.7l.22-1.79c0-.23,0-.23-.22-.45l-2-3.15c-.23-.22-.45-.22-.68-.45l-6.06-.44c-.45,0-.67.22-.9.67h0C6.51,20.08,5.39,21,3.82,21Z"/><path d="M52.31,15.36l-2.69-.45a1.72,1.72,0,0,1-1.35-2.24l.23-.9a1.49,1.49,0,0,0-.23-1.35L46.48,6.83a.82.82,0,0,1-.23-.67v-.9A1.63,1.63,0,0,1,47.6,3.69L60,.09a1.36,1.36,0,0,1,1.34.23l7.64,4.94a1.22,1.22,0,0,1,.67,1.12l.9,4a1.61,1.61,0,0,1-1.12,2l-5.17,2a3.18,3.18,0,0,0-.9.68L60.17,20.3a1.54,1.54,0,0,1-2,.67L57,20.52a1.69,1.69,0,0,1-.9-.44L53,16.26C53,15.58,52.76,15.36,52.31,15.36Z"/><path d="M199.6,12.89h0a.91.91,0,0,0-.9-.45l-9.43,1.35a1.34,1.34,0,0,1-.9-.23l-2.69-3.14c-.23-.22-.23-.22-.45-.22L172.66,8h-.45L165.47,9.3a8.62,8.62,0,0,1-7.63-2h0a7.12,7.12,0,0,0-5.17-2H137.18c-.22,0-.45,0-.45.22l-3.37,2.25c-.22.22-.44.45-.44.67h0a2.64,2.64,0,0,1-1.8,2.47l-2.25.67a1.33,1.33,0,0,1-1.79-.89h0a1.16,1.16,0,0,0-.9-.45h-9.65l-6.52-2a6.83,6.83,0,0,0-4.71.22l-1.8.9a5.18,5.18,0,0,0-3.14,3.37l-.67,1.79a4.52,4.52,0,0,0,.22,3.82l.67,1.12a1.16,1.16,0,0,0,.9.45h.9a3.37,3.37,0,0,0,3.14-2.24h0c0-.23.23-.45.68-.68l1.34-.45c.68-.22,1.13.23,1.35.9l.23,2.47a3.47,3.47,0,0,1-2.25,3.59l-3.59,1.35a.86.86,0,0,1-1.12-.67l-.45-1.8a.71.71,0,0,0-.68-.67l-1.57-.23c-.67,0-1.12.23-1.12.9v2.25c0,.44-.23.67-.67.89l-3.37.9a.48.48,0,0,0-.45.45l-1.12,2.25a.66.66,0,0,0,0,.89l.45.9a1,1,0,0,1-.9,1.35h0A2.25,2.25,0,0,0,90,34.89l.45,1.8c0,.45.45.67.9.67h2.69c.45,0,.68-.22.9-.67l.45-1.35c0-.45.45-.67.9-.67l2.92.22c.22,0,.45,0,.45-.22l1.57-.9a1.07,1.07,0,0,1,1.35.23l1.57,2.24c.22.23.22.45.22.9v.22c-.22.68.68,1.57,1.35,1.13l.45-.23a.82.82,0,0,0,.45-1.12l-.9-2.7a.82.82,0,0,1,.45-1.12h.22a1,1,0,0,1,1.12.23l1.13,1.34a4.58,4.58,0,0,0,5.16,1.58h.23c.44-.23.67,0,.89.22l2.7,2.69c.22.23.22.45.22.9l-.45,2.47a.72.72,0,0,1-.67.68l-7.63,1.79h-.68l-4.26-2a.48.48,0,0,1-.45-.45h0a5.54,5.54,0,0,0-4.94-3.14l-3.37-.23a.81.81,0,0,0-.67.23L89.13,44.1A13.74,13.74,0,0,0,84,53.3h0c0,.23-.22.45-.45.68l-.67.45a1.14,1.14,0,0,0-.45.89h0a10.77,10.77,0,0,0,3.82,8.31l2,1.8a.83.83,0,0,0,.67.22h8.76c.22,0,.44,0,.44.23l2.47,1.57c.23.22.45.45.45.67l.23,4.27a1.16,1.16,0,0,0,.45.9l2.92,1.34c.45.23.67.45.45.9l-.9,7.86a7.63,7.63,0,0,0,1.12,4.94l1.12,1.57c0,.23.23.23.23.45l.22,2.24a5.48,5.48,0,0,0,4.49,4.94h0A5.76,5.76,0,0,0,116.3,96l1.35-1.12A11.56,11.56,0,0,0,121,86.53V84.06c0-.22.22-.67.44-.67l2-1.57a6.83,6.83,0,0,0,2.69-5.61V70.59a.83.83,0,0,1,.22-.67l4.27-4.72c.22-.22.22-.45.22-.89h0a5.92,5.92,0,0,0-4-4.27l-.45-.22a3.58,3.58,0,0,1-2.69-3.37h0A3.61,3.61,0,0,0,122.59,54L121,52.41a.83.83,0,0,1-.23-.68l.23-2.92a1,1,0,0,1,.89-.89h-.67c.22,0,.67.22.67.44l3.82,4.5a.8.8,0,0,1,.23.67v2.24c0,.45.22.9.67.9l1.35.45h.67l4.27-2.47a2.82,2.82,0,0,0,.89-4.26l-2.92-4.27a.83.83,0,0,1,.68-1.35l2.47-.22c.45,0,.67.22.9.67l.89,2.25c0,.22.23.22.23.45L141,51.51h.22l3.15,1.35c.44.22.67.44.67.89l-.45,1.35a6.15,6.15,0,0,0,1.8,5.16l2.92,2.7a2.39,2.39,0,0,0,3.81-.9l3.15-8.53a1.22,1.22,0,0,1,1.12-.67l2.92.44A.72.72,0,0,1,161,54l2.47,7c0,.22.22.22.22.45l.9.89a.89.89,0,0,0,1.57-.67L165.92,60c0-.67.45-1.12.9-.9h0c.22,0,.45.23.67.23h0a2.42,2.42,0,0,0,3.14.45l2-1.35a1.19,1.19,0,0,0,.44-.9L172.88,49c0-.45.22-.9.67-.9l2.47-.67a.72.72,0,0,0,.68-.68l1.12-4a1.34,1.34,0,0,0-.23-.9L176,40.06a4.09,4.09,0,0,1-.45-4.72l.45-1.12c.23-.22.45-.45.68-.45h0a2.7,2.7,0,0,0,2.24-1.57l5.61-11.9a1.09,1.09,0,0,1,1.35-.45l1.35.67c.22.23.45.45.45.68v3.14a1.16,1.16,0,0,0,.45.9h0a2.36,2.36,0,0,0,3.14-1.12l2-4.27c0-.22.23-.22.45-.45l4.49-2.69A2.53,2.53,0,0,0,199.6,12.89Z"/><path d="M129.77,78h0a1.6,1.6,0,0,0-1.34.67l-1.8,2.47a1.34,1.34,0,0,0-.23.9v3.82c0,.45.23.67.45,1.12l.68.68a1.71,1.71,0,0,0,2,.44h0a2.24,2.24,0,0,0,.9-1.12l1.34-6.73a1.37,1.37,0,0,0-.67-1.58l-.23-.22A3.77,3.77,0,0,0,129.77,78Z"/><path d="M91.6,24.34l1.58-.45a1.49,1.49,0,0,0,.89-1.12V19.63A1.06,1.06,0,0,0,93,18.5h0c-.45,0-1.12.45-1.12.9l-.23.9a1,1,0,0,1-.89.9h-.9c-.68,0-.9.67-.9,1.12v.45a1,1,0,0,0,.9,1.12l1.34.23C91.15,24.34,91.38,24.34,91.6,24.34Z"/><path d="M177.15,75.53l-.68-.9a1.71,1.71,0,0,0-.9-.45l-3.36.68c-.23,0-.45.22-.68.45l-2,2.47a.77.77,0,0,1-.45.22l-1.57.67A4.82,4.82,0,0,0,165,82.94l.23,3.37a1,1,0,0,0,.89.9h6.52a.84.84,0,0,1,.67.22l1.8,1.57c.22,0,.22.23.44.23l5.17,1.12c.45,0,.9,0,1.12-.45l2.69-3.59a.83.83,0,0,0,.23-.68V80.92l-2.92-6.74a.47.47,0,0,0-.45-.44h0c-.67-.23-1.57.22-1.57.89h0a1.26,1.26,0,0,1-1.35,1.13l-.67-.23C177.37,76,177.15,75.76,177.15,75.53Z"/><path d="M183.21,33.1l.67,1.34a1,1,0,0,1,0,1.13l-2.24,5.83a1.41,1.41,0,0,0,0,1.35l.67,1.12a1.49,1.49,0,0,0,1.57.9h0a1.69,1.69,0,0,0,1.57-.9l2.7-4.71a1.71,1.71,0,0,0,.22-1.12l-1.12-5.39a1.86,1.86,0,0,0-.9-1.35l-.9-.45a2.49,2.49,0,0,0-1.79,0h0A2.75,2.75,0,0,0,183.21,33.1Z"/><path d="M188.15,87.21l-.45.67a.22.22,0,0,1-.23.22l-1.34,2.47a.48.48,0,0,1-.45.45l-3.59,2.92a1.74,1.74,0,0,0-.45,1.8l.22.45a1.52,1.52,0,0,0,1.35.9H185a1.51,1.51,0,0,0,1.35-.9l1.35-4.27c0-.22.22-.45.45-.67l2-1.57a1.42,1.42,0,0,0,.22-2l-.22-.23A1.16,1.16,0,0,0,188.15,87.21Z"/></svg>