<svg xmlns="http://www.w3.org/2000/svg" viewBox="0 0 426.89 537.6"><path d="M2.49,21.45C-3.55,12.66,2.1,0,11.85,0H132a22.41,22.41,0,0,1,18.42,10.08l38.7,56L111.31,179.2Zm211,516.15a156.81,156.81,0,1,1,110.88-45.93A156.83,156.83,0,0,1,213.44,537.6Zm0-109.31,32.48,17.08a11.21,11.21,0,0,0,16-11.59l-6.22-36.18L282,372a11.21,11.21,0,0,0-6.11-18.77l-36.34-5.26L223.3,315h0a11.2,11.2,0,0,0-19.71,0l-16.24,32.93L151,353.2h0A11.21,11.21,0,0,0,144.9,372l26.32,25.64L165,433.78h0a11.2,11.2,0,0,0,16,11.59Zm0-243.77A195.43,195.43,0,0,1,298.73,204L424.39,21.45C430.44,12.66,424.78,0,415,0H294.86a22.39,22.39,0,0,0-18.42,10.08L148.87,195.44a195.72,195.72,0,0,1,64.56-10.92Z"/></svg>